<svg height="50pt" viewBox="0 0 462.112 462.112" width="462.112pt" xmlns="http://www.w3.org/2000/svg"><path d="m69.425781 330.625c-1.671875-1.671875-3.984375-2.625-6.347656-2.625-4.941406 0-8.964844 4.023438-8.964844 8.96875 0 2.359375.949219 4.671875 2.621094 6.34375l62.066406 62.0625c1.671875 1.671875 3.984375 2.625 6.34375 2.625 4.945313 0 8.96875-4.023438 8.96875-8.96875 0-2.359375-.953125-4.671875-2.625-6.34375zm0 0"/><path d="m21.183594 419.761719 21.167968 21.167969 59.585938-29.785157-50.96875-50.976562zm0 0"/><path d="m0 462.113281 27.273438-13.632812-13.640626-13.648438zm0 0"/><path d="m85.425781 323.996094 192.6875-192.6875 52.6875 52.6875-192.6875 192.6875zm0 0"/><path d="m341.421875 68 12.691406-12.6875 52.6875 52.6875-12.691406 12.6875zm0 0"/><path d="m424.855469 0c-9.953125 0-19.304688 3.871094-26.34375 10.910156l-33.085938 33.089844 52.6875 52.6875 33.085938-33.085938c7.039062-7.042968 10.914062-16.394531 10.914062-26.34375 0-20.546874-16.714843-37.257812-37.257812-37.257812zm0 0"/><path d="m313.421875 96.003906 16.6875-16.6875 52.6875 52.683594-16.6875 16.691406zm0 0"/><path d="m289.421875 120 12.691406-12.6875 52.6875 52.6875-12.691406 12.6875zm0 0"/><path d="m175.078125 176c6.578125 0 13.011719-2.664062 17.65625-7.3125l107.035156-107.03125c1.261719-1.265625 3.421875-1.265625 4.6875 0l8 8 11.3125-11.3125-8-8c-7.28125-7.28125-20.035156-7.28125-27.3125 0l-107.03125 107.03125c-1.671875 1.671875-3.984375 2.625-6.347656 2.625-4.941406 0-8.964844-4.023438-8.964844-8.96875 0-2.359375.949219-4.671875 2.621094-6.34375l11.035156-11.03125-11.3125-11.3125-11.03125 11.03125c-4.648437 4.648438-7.3125 11.082031-7.3125 17.65625 0 13.769531 11.199219 24.96875 24.964844 24.96875zm0 0"/></svg>